<svg xmlns="http://www.w3.org/2000/svg" width="2733" height="1000" viewBox="0 0 2733 1000">
  <g fill="none" fill-rule="evenodd">
    <path fill="#2D2D2D" fill-rule="nonzero" d="M1085.46579 479.908451L1085.46579 404.548295C1096.74172 404.312794 1110.1319 404.312794 1123.99191 403.370792 1154.76583 400.780287 1186.4794 380.527245 1186.4794 344.731171 1186.4794 316.000111 1166.74651 286.798051 1122.11259 286.091549L1046 286.32705 1046 479.908451 1085.46579 479.908451zM1084.94479 369.753521L1084.94479 320.253521C1098.59927 320.253521 1111.54749 320.722715 1123.3186 322.364896 1139.79816 324.47627 1145.44829 331.279587 1145.44829 345.12082 1145.44829 358.023663 1136.73767 365.999967 1122.37692 367.876744 1110.60581 369.284327 1097.42216 369.753521 1084.94479 369.753521zM1236.03116 479.908451L1251.47854 440.579869 1329.4176 440.579869 1345.09904 479.908451 1387.46231 479.908451 1306.71463 286.091549 1274.18151 286.091549 1193.43383 479.908451 1236.03116 479.908451zM1315.13628 404.612676L1266.4553 404.612676 1290.67821 345.352113 1315.13628 404.612676zM1468.83958 482C1504.42947 482 1534.16575 455.896767 1536.97548 428.147384 1537.44377 426.26607 1537.67791 424.384755 1537.67791 422.503441 1537.67791 367.23984 1444.48861 363.712376 1444.48861 341.606935 1444.72275 331.024543 1454.32265 321.382808 1470.24445 321.617972 1484.05894 321.853137 1492.72227 322.558629 1503.25875 333.846514L1530.41945 312.916895C1517.54153 295.044411 1488.27353 284.697183 1466.264 284.697183 1431.37654 284.697183 1405.85485 313.857552 1405.85485 342.547592 1406.08899 392.167251 1496.00028 395.92988 1496.00028 423.914427 1496.00028 436.613297 1485.22966 443.197897 1467.66886 443.197897 1450.34221 443.197897 1432.31312 434.496819 1424.11808 426.501234L1397.89395 449.547332C1413.5816 464.833009 1443.31789 482 1468.83958 482zM1623.92328 482C1659.51317 482 1689.24945 455.896767 1692.05918 428.147384 1692.52747 426.26607 1692.76161 424.384755 1692.76161 422.503441 1692.76161 367.23984 1599.5723 363.712376 1599.5723 341.606935 1599.80645 331.024543 1609.40635 321.382808 1625.32814 321.617972 1639.14264 321.853137 1647.80597 322.558629 1658.34245 333.846514L1685.50315 312.916895C1672.62523 295.044411 1643.35723 284.697183 1621.3477 284.697183 1586.46024 284.697183 1560.93855 313.857552 1560.93855 342.547592 1561.17269 392.167251 1651.08398 395.92988 1651.08398 423.914427 1651.08398 436.613297 1640.31336 443.197897 1622.75256 443.197897 1605.4259 443.197897 1587.39682 434.496819 1579.20178 426.501234L1552.97765 449.547332C1568.6653 464.833009 1598.40159 482 1623.92328 482zM1753.26512 479.908451L1753.26512 286.091549 1713.62489 286.091549 1713.62489 479.908451 1753.26512 479.908451zM1867.43443 482C1919.00631 482 1961.20245 435.854935 1961.20245 382.882283 1961.4359 330.145065 1919.00631 284 1867.66885 284 1816.33138 284.235434 1773.43295 329.909631 1773.43295 382.882283 1773.43295 435.854935 1816.09696 482 1867.43443 482zM1867.3177 440.864565C1837.61326 441.099313 1815.15951 415.981278 1815.15951 382.88181 1815.15951 350.01709 1837.61326 325.133803 1867.5516 325.133803 1897.25604 325.133803 1919.4759 350.01709 1919.4759 382.88181 1919.4759 415.981278 1897.25604 440.864565 1867.3177 440.864565zM2021.53444 479.908451L2021.53444 369.458722 2111.04383 465.542921 2139.23576 479.908451 2139.23576 286.091549 2100.00198 286.091549 2099.53212 396.776779 2010.02273 300.457079 1982.06573 286.091549 1982.06573 479.908451 2021.53444 479.908451zM2190.87384 479.908451L2206.32122 440.579869 2284.26029 440.579869 2299.94172 479.908451 2342.305 479.908451 2261.55732 286.091549 2229.02419 286.091549 2148.27651 479.908451 2190.87384 479.908451zM2269.97897 404.612676L2221.29798 404.612676 2245.52089 345.352113 2269.97897 404.612676zM2438.61862 479.908451L2438.61862 322.358624 2489.73883 322.358624 2489.73883 286.091549 2347.86854 286.091549 2347.86854 322.358624 2399.22324 322.358624 2399.22324 479.908451 2438.61862 479.908451zM2633 479.908451L2633 443.641376 2549.22164 443.641376 2549.22164 401.015787 2619.19295 401.015787 2619.19295 364.748712 2549.22164 364.748712 2549.22164 322.358624 2633 322.358624 2633 286.091549 2509.90666 286.091549 2509.90666 479.908451 2633 479.908451zM1086.25644 717.908451L1086.25644 642.548295C1097.47257 642.312794 1110.79172 642.312794 1124.5782 641.370792 1155.18888 638.780287 1186.73423 618.527245 1186.73423 582.731171 1186.73423 554.000111 1167.10601 524.798051 1122.70885 524.091549L1047 524.32705 1047 717.908451 1086.25644 717.908451zM1085.93093 607.753521L1085.93093 558.253521C1099.58056 558.253521 1112.52418 558.722715 1124.2911 560.364896 1140.76479 562.47627 1146.41291 569.279587 1146.41291 583.12082 1146.41291 596.023663 1137.70539 603.999967 1123.34974 605.876744 1111.58282 607.284327 1098.40387 607.753521 1085.93093 607.753521zM1329.94444 717.908451L1329.94444 681.641376 1246.19589 681.641376 1246.19589 639.015787 1316.14231 639.015787 1316.14231 602.748712 1246.19589 602.748712 1246.19589 560.358624 1329.94444 560.358624 1329.94444 524.091549 1206.89489 524.091549 1206.89489 717.908451 1329.94444 717.908451zM1439.20677 720C1490.76031 720 1532.94144 673.854935 1532.94144 620.882283 1533.17481 568.145065 1490.76031 522 1439.44111 522 1388.12191 522.235434 1345.23874 567.909631 1345.23874 620.882283 1345.23874 673.854935 1387.88757 720 1439.20677 720zM1439.09009 678.864565C1409.39621 679.099313 1386.95045 653.981278 1386.95045 620.88181 1386.95045 588.01709 1409.39621 563.133803 1439.3239 563.133803 1469.01778 563.133803 1491.22973 588.01709 1491.22973 620.88181 1491.22973 653.981278 1469.01778 678.864565 1439.09009 678.864565zM1593.05374 717.908451L1593.05374 642.548295C1604.26986 642.312794 1617.58901 642.312794 1631.3755 641.370792 1661.98618 638.780287 1693.53153 618.527245 1693.53153 582.731171 1693.53153 554.000111 1673.90331 524.798051 1629.50615 524.091549L1553.7973 524.32705 1553.7973 717.908451 1593.05374 717.908451zM1592.72823 607.753521L1592.72823 558.253521C1606.37786 558.253521 1619.32147 558.722715 1631.0884 560.364896 1647.56209 562.47627 1653.21021 569.279587 1653.21021 583.12082 1653.21021 596.023663 1644.50269 603.999967 1630.14704 605.876744 1618.38012 607.284327 1605.20117 607.753521 1592.72823 607.753521zM1829.09459 717.908451L1829.09459 681.641376 1753.09789 681.641376 1753.09789 524.091549 1713.69219 524.091549 1713.69219 717.908451 1829.09459 717.908451zM1973 717.908451L1973 681.641376 1889.25145 681.641376 1889.25145 639.015787 1959.19786 639.015787 1959.19786 602.748712 1889.25145 602.748712 1889.25145 560.358624 1973 560.358624 1973 524.091549 1849.95045 524.091549 1849.95045 717.908451 1973 717.908451z"/>
    <path fill="#FFF" d="M512.309369,134.254256 C358.585561,134.951503 219.583579,232.57398 166.39537,377.194456 C113.273034,521.63461 159.065397,690.748863 277.75625,788.44948 C336.647546,836.924117 408.518002,865.621407 485.60248,871.437803 C563.002354,877.298277 638.218407,859.430342 703.102235,819.813536 C767.820379,780.296909 818.263841,721.958643 848.975067,651.099999 C879.640381,580.35556 887.892588,503.516227 872.843389,428.888848 C843.022459,280.992517 718.71236,161.773441 570.545917,138.964675 C550.791722,135.925243 531.199218,134.34041 512.309369,134.254256"/>
    <path fill="#5BCCA7" d="M515.903075,514.19223 C476.818045,514.19223 445.132928,482.385402 445.132928,443.150236 C445.132928,403.91507 476.818045,372.110245 515.903075,372.110245 C554.988105,372.110245 586.671227,403.91507 586.671227,443.150236 C586.671227,482.385402 554.988105,514.19223 515.903075,514.19223 M682.321286,325.128212 L682.373173,325.138229 L644.270009,290.987508 L663.087101,309.620455 C630.719467,286.668334 591.221335,273.179931 548.580036,273.179931 C438.840607,273.179931 349.880006,362.484257 349.880006,472.645224 C349.880006,477.503293 350.061611,482.319292 350.400873,487.091218 L350.394886,487.087211 L350.410852,487.259497 C350.670288,490.851463 351.017533,494.417386 351.466556,497.953258 L363.963389,624.978235 L370.984126,696.306705 L346.714886,712.617796 L378.018832,740.852692 C383.003995,746.389888 392.213973,747.375525 398.113148,741.151187 L471.427764,663.774672 L476.760171,658.670194 C499.035745,667.342598 523.253097,672.108514 548.580036,672.108514 C658.31747,672.108514 747.280067,582.806191 747.280067,472.645224 C747.280067,414.190136 722.230524,361.610806 682.321286,325.128212"/>
    <path fill="#382C63" d="M516.082338,514.512987 C477.026811,514.512987 445.365612,482.706303 445.365612,443.471314 C445.365612,404.236325 477.026811,372.431644 516.082338,372.431644 C555.137865,372.431644 586.797071,404.236325 586.797071,443.471314 C586.797071,482.706303 555.137865,514.512987 516.082338,514.512987 M516.158116,243.968858 C406.501524,243.968858 317.608074,333.270778 317.608074,443.431247 C317.608074,450.486935 317.976993,457.456479 318.6909,464.321851 L331.68282,595.757561 L342.311667,703.820556 C343.462294,715.511922 357.748421,720.442088 365.806802,711.929989 L439.066076,634.553823 L444.093341,629.341189 C466.435854,638.087676 490.736627,642.893637 516.158116,642.893637 C625.812714,642.893637 714.708158,553.591717 714.708158,443.431247 C714.708158,333.270778 625.812714,243.968858 516.158116,243.968858"/>
    <path fill="#382C63" d="M527.209594,126.628455 C372.491107,127.327623 232.582419,225.585661 179.045596,371.144668 C125.572642,516.531386 171.666643,686.757574 291.139006,785.09775 C350.410136,833.889205 422.744627,862.773427 500.32442,868.629203 C578.223562,874.507016 653.937162,856.541022 719.253963,816.658439 C784.397118,776.884037 835.167583,718.164006 866.076551,646.848948 C896.937617,575.64808 905.244677,498.310968 890.097566,423.195565 C860.080778,274.327034 734.953946,154.32269 585.810091,131.366365 C565.936619,128.309261 546.218829,126.714599 527.209594,126.628455 M529.19754,896.349481 C518.950437,896.349481 508.667406,895.960832 498.334478,895.181531 C415.289829,888.915069 337.823803,857.967403 274.315315,805.688125 C146.244486,700.268129 96.8332491,517.78548 154.158348,361.923273 C211.511389,205.984939 361.405713,100.725211 527.151712,100 L527.26548,100 C547.600012,100.088147 568.649087,101.786983 589.83189,105.046425 C749.753765,129.661519 883.920163,258.316304 916.102535,417.914749 C932.33144,498.405125 923.443564,581.241418 890.404939,657.47068 C857.300448,733.850193 802.883419,796.763225 733.03985,839.40842 C671.639063,876.901012 601.715656,896.349481 529.19754,896.349481"/>
    <path fill="#5BCCA7" d="M498.45168,125.604203 C341.997764,126.313586 200.514417,225.757436 146.379004,373.076611 C92.3054282,520.229462 138.916659,692.521318 259.730448,792.055344 C319.668577,841.435603 392.813919,870.668588 471.259302,876.594139 C550.043792,882.54574 626.598155,864.356283 692.650181,823.991598 C758.528664,783.733121 809.871432,724.301268 841.127108,652.124571 C872.334909,580.066104 880.73279,501.793525 865.415135,425.769327 C835.05909,275.095613 708.52437,153.634845 557.701622,130.399551 C537.608545,127.303516 517.675048,125.690371 498.45168,125.604203 M500.450416,901.913495 C490.161516,901.913495 479.828731,901.524737 469.452062,900.739206 C386.039762,894.438924 308.236687,863.330283 244.446704,810.77784 C115.819495,704.805264 66.1942026,521.367681 123.768558,364.690264 C181.370839,207.930686 331.924296,102.118421 498.397822,101.391003 L498.501549,101.391003 C518.927748,101.479175 540.072056,103.186504 561.354002,106.46289 C721.970953,131.209129 856.716048,260.53523 889.038913,420.965964 C905.339977,501.877689 896.415484,585.152019 863.230889,661.785403 C829.976477,738.565073 775.32642,801.812364 705.179181,844.677923 C643.511607,882.363385 573.286573,901.913495 500.450416,901.913495"/>
    <path fill="#2D2D2D" d="M512.309369,134.254256 C358.585561,134.951503 219.583579,232.57398 166.39537,377.194456 C113.273034,521.63461 159.065397,690.748863 277.75625,788.44948 C336.647546,836.924117 408.518002,865.621407 485.60248,871.437803 C563.002354,877.298277 638.218407,859.430342 703.102235,819.813536 C767.820379,780.296909 818.263841,721.958643 848.975067,651.099999 C879.640381,580.35556 887.892588,503.516227 872.843389,428.888848 C843.022459,280.992517 718.71236,161.773441 570.545917,138.964675 C550.791722,135.925243 531.199218,134.34041 512.309369,134.254256 M514.295568,904 C503.993284,904 493.639099,903.609302 483.25098,902.823898 C399.706864,896.518629 321.772014,865.382981 257.8743,812.786978 C129.014907,706.717403 79.3000502,523.115256 136.979665,366.294976 C194.679241,209.408577 345.48663,103.51131 512.241499,102.782007 L512.377239,102.782007 C532.828101,102.870164 553.997587,104.577215 575.298821,107.855074 C736.204884,132.623341 871.198536,262.068695 903.578568,422.643686 C919.907319,503.628428 910.968426,586.969381 877.730037,663.656441 C844.421781,740.499781 789.672559,803.792903 719.39705,846.699589 C657.611294,884.427018 587.263923,904 514.295568,904"/>
  </g>
</svg>
